<svg xmlns="http://www.w3.org/2000/svg" version="1.1" xmlns:xlink="http://www.w3.org/1999/xlink" xmlns:svgjs="http://svgjs.dev/svgjs" width="3840" height="2160" preserveAspectRatio="none" viewBox="0 0 3840 2160"><g mask="url(&quot;#SvgjsMask1072&quot;)" fill="none"><rect width="3840" height="2160" x="0" y="0" fill="url(&quot;#SvgjsRadialGradient1073&quot;)"></rect><use xlink:href="#SvgjsSymbol1080" x="0" y="0"></use><use xlink:href="#SvgjsSymbol1080" x="0" y="720"></use><use xlink:href="#SvgjsSymbol1080" x="0" y="1440"></use><use xlink:href="#SvgjsSymbol1080" x="720" y="0"></use><use xlink:href="#SvgjsSymbol1080" x="720" y="720"></use><use xlink:href="#SvgjsSymbol1080" x="720" y="1440"></use><use xlink:href="#SvgjsSymbol1080" x="1440" y="0"></use><use xlink:href="#SvgjsSymbol1080" x="1440" y="720"></use><use xlink:href="#SvgjsSymbol1080" x="1440" y="1440"></use><use xlink:href="#SvgjsSymbol1080" x="2160" y="0"></use><use xlink:href="#SvgjsSymbol1080" x="2160" y="720"></use><use xlink:href="#SvgjsSymbol1080" x="2160" y="1440"></use><use xlink:href="#SvgjsSymbol1080" x="2880" y="0"></use><use xlink:href="#SvgjsSymbol1080" x="2880" y="720"></use><use xlink:href="#SvgjsSymbol1080" x="2880" y="1440"></use><use xlink:href="#SvgjsSymbol1080" x="3600" y="0"></use><use xlink:href="#SvgjsSymbol1080" x="3600" y="720"></use><use xlink:href="#SvgjsSymbol1080" x="3600" y="1440"></use></g><defs><mask id="SvgjsMask1072"><rect width="3840" height="2160" fill="#ffffff"></rect></mask><radialGradient cx="50%" cy="50%" r="2202.91" gradientUnits="userSpaceOnUse" id="SvgjsRadialGradient1073"><stop stop-color="rgba(16, 20, 24, 1)" offset="0"></stop><stop stop-color="rgba(8, 10, 12, 1)" offset="1"></stop></radialGradient><path d="M-1 0 a1 1 0 1 0 2 0 a1 1 0 1 0 -2 0z" id="SvgjsPath1078"></path><path d="M-3 0 a3 3 0 1 0 6 0 a3 3 0 1 0 -6 0z" id="SvgjsPath1075"></path><path d="M-5 0 a5 5 0 1 0 10 0 a5 5 0 1 0 -10 0z" id="SvgjsPath1077"></path><path d="M2 -2 L-2 2z" id="SvgjsPath1074"></path><path d="M6 -6 L-6 6z" id="SvgjsPath1076"></path><path d="M30 -30 L-30 30z" id="SvgjsPath1079"></path></defs><symbol id="SvgjsSymbol1080"><use xlink:href="#SvgjsPath1074" x="30" y="30" stroke="rgba(133, 71, 109, 0.6)"></use><use xlink:href="#SvgjsPath1075" x="30" y="90" stroke="rgba(133, 71, 109, 0.6)"></use><use xlink:href="#SvgjsPath1076" x="30" y="150" stroke="rgba(133, 71, 109, 0.6)"></use><use xlink:href="#SvgjsPath1077" x="30" y="210" stroke="rgba(133, 71, 109, 0.6)"></use><use xlink:href="#SvgjsPath1077" x="30" y="270" stroke="rgba(133, 71, 109, 0.6)"></use><use xlink:href="#SvgjsPath1077" x="30" y="330" stroke="rgba(71, 133, 98, 0.6)"></use><use xlink:href="#SvgjsPath1075" x="30" y="390" stroke="rgba(71, 133, 98, 0.6)"></use><use xlink:href="#SvgjsPath1078" x="30" y="450" stroke="rgba(133, 71, 109, 0.6)"></use><use xlink:href="#SvgjsPath1077" x="30" y="510" stroke="rgba(71, 133, 98, 0.6)"></use><use xlink:href="#SvgjsPath1077" x="30" y="570" stroke="rgba(71, 133, 98, 0.6)"></use><use xlink:href="#SvgjsPath1076" x="30" y="630" stroke="rgba(71, 133, 98, 0.6)"></use><use xlink:href="#SvgjsPath1077" x="30" y="690" stroke="rgba(133, 71, 109, 0.6)"></use><use xlink:href="#SvgjsPath1077" x="90" y="30" stroke="rgba(133, 71, 109, 0.6)"></use><use xlink:href="#SvgjsPath1078" x="90" y="90" stroke="rgba(71, 133, 98, 0.6)"></use><use xlink:href="#SvgjsPath1076" x="90" y="150" stroke="rgba(71, 133, 98, 0.6)"></use><use xlink:href="#SvgjsPath1077" x="90" y="210" stroke="rgba(133, 71, 109, 0.6)"></use><use xlink:href="#SvgjsPath1075" x="90" y="270" stroke="rgba(133, 71, 109, 0.6)"></use><use xlink:href="#SvgjsPath1074" x="90" y="330" stroke="rgba(71, 133, 98, 0.6)"></use><use xlink:href="#SvgjsPath1077" x="90" y="390" stroke="rgba(71, 133, 98, 0.6)"></use><use xlink:href="#SvgjsPath1077" x="90" y="450" stroke="rgba(71, 133, 98, 0.6)"></use><use xlink:href="#SvgjsPath1076" x="90" y="510" stroke="rgba(71, 133, 98, 0.6)"></use><use xlink:href="#SvgjsPath1077" x="90" y="570" stroke="rgba(133, 71, 109, 0.6)"></use><use xlink:href="#SvgjsPath1077" x="90" y="630" stroke="rgba(133, 71, 109, 0.6)"></use><use xlink:href="#SvgjsPath1077" x="90" y="690" stroke="rgba(133, 71, 109, 0.6)"></use><use xlink:href="#SvgjsPath1077" x="150" y="30" stroke="rgba(71, 133, 98, 0.6)"></use><use xlink:href="#SvgjsPath1077" x="150" y="90" stroke="rgba(133, 71, 109, 0.6)"></use><use xlink:href="#SvgjsPath1077" x="150" y="150" stroke="rgba(133, 71, 109, 0.6)"></use><use xlink:href="#SvgjsPath1077" x="150" y="210" stroke="rgba(133, 71, 109, 0.6)"></use><use xlink:href="#SvgjsPath1076" x="150" y="270" stroke="rgba(133, 71, 109, 0.6)"></use><use xlink:href="#SvgjsPath1079" x="150" y="330" stroke="rgba(133, 71, 109, 0.6)" stroke-width="3"></use><use xlink:href="#SvgjsPath1074" x="150" y="390" stroke="rgba(71, 133, 98, 0.6)"></use><use xlink:href="#SvgjsPath1074" x="150" y="450" stroke="rgba(133, 71, 109, 0.6)"></use><use xlink:href="#SvgjsPath1077" x="150" y="510" stroke="rgba(71, 133, 98, 0.6)"></use><use xlink:href="#SvgjsPath1076" x="150" y="570" stroke="rgba(133, 71, 109, 0.6)"></use><use xlink:href="#SvgjsPath1076" x="150" y="630" stroke="rgba(133, 71, 109, 0.6)"></use><use xlink:href="#SvgjsPath1074" x="150" y="690" stroke="rgba(133, 71, 109, 0.6)"></use><use xlink:href="#SvgjsPath1074" x="210" y="30" stroke="rgba(133, 71, 109, 0.6)"></use><use xlink:href="#SvgjsPath1077" x="210" y="90" stroke="rgba(133, 71, 109, 0.6)"></use><use xlink:href="#SvgjsPath1076" x="210" y="150" stroke="rgba(71, 133, 98, 0.6)"></use><use xlink:href="#SvgjsPath1074" x="210" y="210" stroke="rgba(133, 71, 109, 0.6)"></use><use xlink:href="#SvgjsPath1076" x="210" y="270" stroke="rgba(133, 71, 109, 0.6)"></use><use xlink:href="#SvgjsPath1076" x="210" y="330" stroke="rgba(133, 71, 109, 0.6)"></use><use xlink:href="#SvgjsPath1079" x="210" y="390" stroke="rgba(133, 71, 109, 0.6)" stroke-width="3"></use><use xlink:href="#SvgjsPath1077" x="210" y="450" stroke="rgba(133, 71, 109, 0.6)"></use><use xlink:href="#SvgjsPath1077" x="210" y="510" stroke="rgba(71, 133, 98, 0.6)"></use><use xlink:href="#SvgjsPath1077" x="210" y="570" stroke="rgba(71, 133, 98, 0.6)"></use><use xlink:href="#SvgjsPath1077" x="210" y="630" stroke="rgba(71, 133, 98, 0.6)"></use><use xlink:href="#SvgjsPath1076" x="210" y="690" stroke="rgba(133, 71, 109, 0.6)"></use><use xlink:href="#SvgjsPath1076" x="270" y="30" stroke="rgba(71, 133, 98, 0.6)"></use><use xlink:href="#SvgjsPath1076" x="270" y="90" stroke="rgba(133, 71, 109, 0.6)"></use><use xlink:href="#SvgjsPath1076" x="270" y="150" stroke="rgba(133, 71, 109, 0.6)"></use><use xlink:href="#SvgjsPath1074" x="270" y="210" stroke="rgba(71, 133, 98, 0.6)"></use><use xlink:href="#SvgjsPath1078" x="270" y="270" stroke="rgba(71, 133, 98, 0.6)"></use><use xlink:href="#SvgjsPath1076" x="270" y="330" stroke="rgba(71, 133, 98, 0.6)"></use><use xlink:href="#SvgjsPath1076" x="270" y="390" stroke="rgba(71, 133, 98, 0.6)"></use><use xlink:href="#SvgjsPath1077" x="270" y="450" stroke="rgba(71, 133, 98, 0.6)"></use><use xlink:href="#SvgjsPath1076" x="270" y="510" stroke="rgba(133, 71, 109, 0.6)"></use><use xlink:href="#SvgjsPath1077" x="270" y="570" stroke="rgba(71, 133, 98, 0.6)"></use><use xlink:href="#SvgjsPath1076" x="270" y="630" stroke="rgba(71, 133, 98, 0.6)"></use><use xlink:href="#SvgjsPath1074" x="270" y="690" stroke="rgba(133, 71, 109, 0.6)"></use><use xlink:href="#SvgjsPath1076" x="330" y="30" stroke="rgba(133, 71, 109, 0.6)"></use><use xlink:href="#SvgjsPath1077" x="330" y="90" stroke="rgba(71, 133, 98, 0.6)"></use><use xlink:href="#SvgjsPath1074" x="330" y="150" stroke="rgba(71, 133, 98, 0.6)"></use><use xlink:href="#SvgjsPath1076" x="330" y="210" stroke="rgba(133, 71, 109, 0.6)"></use><use xlink:href="#SvgjsPath1074" x="330" y="270" stroke="rgba(71, 133, 98, 0.6)"></use><use xlink:href="#SvgjsPath1077" x="330" y="330" stroke="rgba(133, 71, 109, 0.6)"></use><use xlink:href="#SvgjsPath1077" x="330" y="390" stroke="rgba(71, 133, 98, 0.6)"></use><use xlink:href="#SvgjsPath1077" x="330" y="450" stroke="rgba(71, 133, 98, 0.6)"></use><use xlink:href="#SvgjsPath1074" x="330" y="510" stroke="rgba(71, 133, 98, 0.6)"></use><use xlink:href="#SvgjsPath1079" x="330" y="570" stroke="rgba(71, 133, 98, 0.6)" stroke-width="3"></use><use xlink:href="#SvgjsPath1077" x="330" y="630" stroke="rgba(133, 71, 109, 0.6)"></use><use xlink:href="#SvgjsPath1076" x="330" y="690" stroke="rgba(133, 71, 109, 0.6)"></use><use xlink:href="#SvgjsPath1079" x="390" y="30" stroke="rgba(133, 71, 109, 0.6)" stroke-width="3"></use><use xlink:href="#SvgjsPath1077" x="390" y="90" stroke="rgba(71, 133, 98, 0.6)"></use><use xlink:href="#SvgjsPath1078" x="390" y="150" stroke="rgba(71, 133, 98, 0.6)"></use><use xlink:href="#SvgjsPath1077" x="390" y="210" stroke="rgba(71, 133, 98, 0.6)"></use><use xlink:href="#SvgjsPath1078" x="390" y="270" stroke="rgba(133, 71, 109, 0.6)"></use><use xlink:href="#SvgjsPath1076" x="390" y="330" stroke="rgba(71, 133, 98, 0.6)"></use><use xlink:href="#SvgjsPath1078" x="390" y="390" stroke="rgba(71, 133, 98, 0.6)"></use><use xlink:href="#SvgjsPath1078" x="390" y="450" stroke="rgba(71, 133, 98, 0.6)"></use><use xlink:href="#SvgjsPath1076" x="390" y="510" stroke="rgba(71, 133, 98, 0.6)"></use><use xlink:href="#SvgjsPath1076" x="390" y="570" stroke="rgba(133, 71, 109, 0.6)"></use><use xlink:href="#SvgjsPath1076" x="390" y="630" stroke="rgba(133, 71, 109, 0.6)"></use><use xlink:href="#SvgjsPath1076" x="390" y="690" stroke="rgba(71, 133, 98, 0.6)"></use><use xlink:href="#SvgjsPath1076" x="450" y="30" stroke="rgba(133, 71, 109, 0.6)"></use><use xlink:href="#SvgjsPath1074" x="450" y="90" stroke="rgba(71, 133, 98, 0.6)"></use><use xlink:href="#SvgjsPath1077" x="450" y="150" stroke="rgba(133, 71, 109, 0.6)"></use><use xlink:href="#SvgjsPath1076" x="450" y="210" stroke="rgba(133, 71, 109, 0.6)"></use><use xlink:href="#SvgjsPath1076" x="450" y="270" stroke="rgba(133, 71, 109, 0.6)"></use><use xlink:href="#SvgjsPath1076" x="450" y="330" stroke="rgba(71, 133, 98, 0.6)"></use><use xlink:href="#SvgjsPath1077" x="450" y="390" stroke="rgba(133, 71, 109, 0.6)"></use><use xlink:href="#SvgjsPath1076" x="450" y="450" stroke="rgba(71, 133, 98, 0.6)"></use><use xlink:href="#SvgjsPath1077" x="450" y="510" stroke="rgba(133, 71, 109, 0.6)"></use><use xlink:href="#SvgjsPath1078" x="450" y="570" stroke="rgba(133, 71, 109, 0.6)"></use><use xlink:href="#SvgjsPath1077" x="450" y="630" stroke="rgba(71, 133, 98, 0.6)"></use><use xlink:href="#SvgjsPath1075" x="450" y="690" stroke="rgba(71, 133, 98, 0.6)"></use><use xlink:href="#SvgjsPath1074" x="510" y="30" stroke="rgba(71, 133, 98, 0.6)"></use><use xlink:href="#SvgjsPath1077" x="510" y="90" stroke="rgba(71, 133, 98, 0.6)"></use><use xlink:href="#SvgjsPath1077" x="510" y="150" stroke="rgba(133, 71, 109, 0.6)"></use><use xlink:href="#SvgjsPath1077" x="510" y="210" stroke="rgba(71, 133, 98, 0.6)"></use><use xlink:href="#SvgjsPath1077" x="510" y="270" stroke="rgba(133, 71, 109, 0.6)"></use><use xlink:href="#SvgjsPath1078" x="510" y="330" stroke="rgba(133, 71, 109, 0.6)"></use><use xlink:href="#SvgjsPath1075" x="510" y="390" stroke="rgba(71, 133, 98, 0.6)"></use><use xlink:href="#SvgjsPath1079" x="510" y="450" stroke="rgba(71, 133, 98, 0.6)" stroke-width="3"></use><use xlink:href="#SvgjsPath1078" x="510" y="510" stroke="rgba(71, 133, 98, 0.6)"></use><use xlink:href="#SvgjsPath1076" x="510" y="570" stroke="rgba(133, 71, 109, 0.6)"></use><use xlink:href="#SvgjsPath1076" x="510" y="630" stroke="rgba(133, 71, 109, 0.6)"></use><use xlink:href="#SvgjsPath1076" x="510" y="690" stroke="rgba(133, 71, 109, 0.6)"></use><use xlink:href="#SvgjsPath1074" x="570" y="30" stroke="rgba(71, 133, 98, 0.6)"></use><use xlink:href="#SvgjsPath1077" x="570" y="90" stroke="rgba(71, 133, 98, 0.6)"></use><use xlink:href="#SvgjsPath1077" x="570" y="150" stroke="rgba(71, 133, 98, 0.6)"></use><use xlink:href="#SvgjsPath1076" x="570" y="210" stroke="rgba(71, 133, 98, 0.6)"></use><use xlink:href="#SvgjsPath1078" x="570" y="270" stroke="rgba(71, 133, 98, 0.6)"></use><use xlink:href="#SvgjsPath1077" x="570" y="330" stroke="rgba(133, 71, 109, 0.6)"></use><use xlink:href="#SvgjsPath1077" x="570" y="390" stroke="rgba(133, 71, 109, 0.6)"></use><use xlink:href="#SvgjsPath1074" x="570" y="450" stroke="rgba(133, 71, 109, 0.6)"></use><use xlink:href="#SvgjsPath1078" x="570" y="510" stroke="rgba(71, 133, 98, 0.6)"></use><use xlink:href="#SvgjsPath1075" x="570" y="570" stroke="rgba(133, 71, 109, 0.6)"></use><use xlink:href="#SvgjsPath1077" x="570" y="630" stroke="rgba(71, 133, 98, 0.6)"></use><use xlink:href="#SvgjsPath1077" x="570" y="690" stroke="rgba(71, 133, 98, 0.6)"></use><use xlink:href="#SvgjsPath1074" x="630" y="30" stroke="rgba(133, 71, 109, 0.6)"></use><use xlink:href="#SvgjsPath1074" x="630" y="90" stroke="rgba(71, 133, 98, 0.6)"></use><use xlink:href="#SvgjsPath1076" x="630" y="150" stroke="rgba(71, 133, 98, 0.6)"></use><use xlink:href="#SvgjsPath1076" x="630" y="210" stroke="rgba(71, 133, 98, 0.6)"></use><use xlink:href="#SvgjsPath1077" x="630" y="270" stroke="rgba(71, 133, 98, 0.6)"></use><use xlink:href="#SvgjsPath1076" x="630" y="330" stroke="rgba(71, 133, 98, 0.6)"></use><use xlink:href="#SvgjsPath1079" x="630" y="390" stroke="rgba(133, 71, 109, 0.6)" stroke-width="3"></use><use xlink:href="#SvgjsPath1074" x="630" y="450" stroke="rgba(133, 71, 109, 0.6)"></use><use xlink:href="#SvgjsPath1074" x="630" y="510" stroke="rgba(133, 71, 109, 0.6)"></use><use xlink:href="#SvgjsPath1078" x="630" y="570" stroke="rgba(133, 71, 109, 0.6)"></use><use xlink:href="#SvgjsPath1079" x="630" y="630" stroke="rgba(71, 133, 98, 0.6)" stroke-width="3"></use><use xlink:href="#SvgjsPath1076" x="630" y="690" stroke="rgba(71, 133, 98, 0.6)"></use><use xlink:href="#SvgjsPath1077" x="690" y="30" stroke="rgba(133, 71, 109, 0.6)"></use><use xlink:href="#SvgjsPath1076" x="690" y="90" stroke="rgba(133, 71, 109, 0.6)"></use><use xlink:href="#SvgjsPath1077" x="690" y="150" stroke="rgba(71, 133, 98, 0.6)"></use><use xlink:href="#SvgjsPath1078" x="690" y="210" stroke="rgba(71, 133, 98, 0.6)"></use><use xlink:href="#SvgjsPath1075" x="690" y="270" stroke="rgba(71, 133, 98, 0.6)"></use><use xlink:href="#SvgjsPath1077" x="690" y="330" stroke="rgba(71, 133, 98, 0.6)"></use><use xlink:href="#SvgjsPath1074" x="690" y="390" stroke="rgba(71, 133, 98, 0.6)"></use><use xlink:href="#SvgjsPath1074" x="690" y="450" stroke="rgba(133, 71, 109, 0.6)"></use><use xlink:href="#SvgjsPath1077" x="690" y="510" stroke="rgba(71, 133, 98, 0.6)"></use><use xlink:href="#SvgjsPath1077" x="690" y="570" stroke="rgba(133, 71, 109, 0.6)"></use><use xlink:href="#SvgjsPath1078" x="690" y="630" stroke="rgba(71, 133, 98, 0.6)"></use><use xlink:href="#SvgjsPath1078" x="690" y="690" stroke="rgba(71, 133, 98, 0.6)"></use></symbol></svg>